<svg xmlns="http://www.w3.org/2000/svg"
  xmlns:xlink="http://www.w3.org/1999/xlink" width="277px" height="94px">
  <path fillRule="evenodd" fill="rgb(250, 172, 1)" d="M90.007,26.935 L90.071,26.999 L89.936,27.134 C89.936,27.134 78.110,38.972 77.028,40.055 C75.946,41.138 74.641,43.133 74.473,47.188 C74.305,51.243 77.835,54.322 77.835,54.322 L90.071,66.570 L90.012,66.628 C91.357,68.048 92.187,69.960 92.187,72.070 C92.187,76.444 88.641,79.990 84.267,79.990 C82.160,79.990 80.250,79.162 78.831,77.820 L78.776,77.875 L66.136,65.224 C55.963,55.040 55.963,38.529 66.136,28.345 L78.776,15.694 L78.825,15.743 C80.244,14.397 82.157,13.567 84.267,13.567 C88.641,13.567 92.187,17.113 92.187,21.487 C92.187,23.600 91.355,25.515 90.007,26.935 Z"/>
  <path fillRule="evenodd" fill="rgb(251, 75, 111)" d="M79.447,84.621 C79.447,88.995 75.901,92.541 71.526,92.541 C69.368,92.541 67.414,91.675 65.985,90.275 L65.931,90.329 L65.796,90.195 C65.796,90.195 53.958,78.369 52.875,77.287 C51.792,76.204 49.797,74.900 45.742,74.732 C41.687,74.564 38.609,78.093 38.609,78.093 L26.361,90.329 L26.278,90.247 C24.825,91.997 22.635,93.112 20.183,93.112 C15.809,93.112 12.262,89.565 12.262,85.191 C12.262,82.742 13.375,80.554 15.121,79.101 L15.055,79.035 L27.707,66.395 C37.890,56.221 54.401,56.221 64.585,66.395 L77.236,79.035 L77.186,79.085 C78.583,80.513 79.447,82.465 79.447,84.621 Z"/>
  <path fillRule="evenodd" fill="rgb(12, 194, 154)" d="M26.916,65.414 L14.276,78.054 L14.177,77.955 C12.839,78.989 11.166,79.610 9.344,79.610 C4.969,79.610 1.423,76.064 1.423,71.690 C1.423,69.868 2.045,68.195 3.079,66.856 L2.981,66.759 L15.217,54.522 C15.217,54.522 18.747,51.447 18.579,47.396 C18.411,43.345 17.106,41.351 16.024,40.269 C14.942,39.187 3.116,27.361 3.116,27.361 L2.981,27.226 L3.063,27.144 C1.475,25.696 0.472,23.616 0.472,21.297 C0.472,16.923 4.019,13.377 8.393,13.377 C10.712,13.377 12.791,14.379 14.240,15.968 L14.276,15.931 L26.916,28.571 C37.090,38.745 37.090,55.240 26.916,65.414 Z"/>
  <path fillRule="evenodd" fill="rgb(179, 114, 189)" d="M77.149,15.065 L77.207,15.123 L64.567,27.762 C54.393,37.936 37.898,37.936 27.724,27.762 L15.085,15.123 L15.180,15.027 C13.294,13.579 12.072,11.308 12.072,8.747 C12.072,4.372 15.618,0.826 19.993,0.826 C22.555,0.826 24.826,2.048 26.273,3.934 L26.380,3.828 L38.616,16.064 C38.616,16.064 41.691,19.594 45.742,19.426 C49.793,19.258 51.787,17.953 52.869,16.871 C53.951,15.789 65.777,3.962 65.777,3.962 L65.912,3.828 L65.969,3.885 C67.381,2.580 69.262,1.777 71.336,1.777 C75.710,1.777 79.257,5.323 79.257,9.697 C79.257,11.771 78.453,13.653 77.149,15.065 Z"/>
  <path fillRule="evenodd" fill="rgb(255, 255, 255)" d="M275.610,62.285 C275.205,62.980 274.558,63.623 273.669,64.212 C272.536,64.929 271.080,65.582 269.300,66.172 C267.520,66.761 265.478,67.056 263.172,67.056 C258.075,67.056 254.060,65.719 251.128,63.043 C248.195,60.368 246.729,56.354 246.729,51.003 C246.729,48.222 247.123,45.820 247.912,43.798 C248.701,41.775 249.783,40.090 251.158,38.741 C252.533,37.393 254.151,36.393 256.012,35.739 C257.872,35.086 259.875,34.760 262.019,34.760 C262.949,34.760 263.829,34.834 264.658,34.981 C265.487,35.129 266.245,35.328 266.934,35.581 L266.934,24.963 C267.378,24.837 267.965,24.710 268.693,24.584 C269.421,24.458 270.230,24.394 271.120,24.394 C272.941,24.394 274.245,24.710 275.034,25.342 C275.823,25.974 276.217,27.175 276.217,28.945 L276.217,59.725 C276.217,60.736 276.014,61.589 275.610,62.285 ZM266.994,43.292 C266.468,43.039 265.892,42.818 265.265,42.628 C264.638,42.439 263.981,42.344 263.293,42.344 C261.109,42.344 259.369,43.039 258.075,44.430 C256.780,45.820 256.134,48.032 256.134,51.066 C256.134,53.973 256.750,56.091 257.984,57.418 C259.218,58.745 260.927,59.409 263.111,59.409 C263.961,59.409 264.719,59.314 265.387,59.124 C266.054,58.935 266.590,58.714 266.994,58.461 L266.994,43.292 ZM243.453,64.655 C242.198,65.456 240.661,66.067 238.841,66.488 C237.021,66.908 234.958,67.120 232.652,67.120 C228.486,67.120 225.168,66.287 222.702,64.623 C220.234,62.959 219.001,60.420 219.001,57.007 C219.001,54.100 219.829,51.888 221.488,50.371 C223.146,48.854 225.695,47.906 229.133,47.527 L237.203,46.642 L237.203,45.947 C237.203,44.599 236.677,43.608 235.625,42.976 C234.573,42.344 233.056,42.028 231.075,42.028 C229.537,42.028 228.031,42.218 226.555,42.597 C225.077,42.976 223.753,43.418 222.580,43.924 C222.095,43.587 221.680,43.071 221.336,42.376 C220.992,41.680 220.821,40.933 220.821,40.132 C220.821,38.278 221.751,36.951 223.612,36.150 C224.785,35.687 226.150,35.339 227.707,35.107 C229.264,34.876 230.791,34.760 232.288,34.760 C234.391,34.760 236.302,34.981 238.022,35.423 C239.741,35.866 241.208,36.551 242.421,37.477 C243.635,38.405 244.575,39.585 245.242,41.017 C245.910,42.450 246.244,44.135 246.244,46.073 L246.244,60.357 C246.244,61.453 245.971,62.327 245.424,62.980 C244.878,63.634 244.220,64.192 243.453,64.655 ZM237.264,53.152 L232.288,53.594 C230.993,53.721 229.952,54.027 229.164,54.511 C228.375,54.995 227.980,55.722 227.980,56.691 C227.980,57.702 228.344,58.503 229.073,59.093 C229.801,59.683 230.993,59.978 232.652,59.978 C233.542,59.978 234.421,59.883 235.292,59.693 C236.161,59.504 236.818,59.262 237.264,58.966 L237.264,53.152 ZM216.149,52.456 L200.373,54.921 C200.939,56.691 201.930,57.945 203.346,58.682 C204.762,59.420 206.400,59.788 208.261,59.788 C209.960,59.788 211.557,59.546 213.054,59.061 C214.550,58.577 215.764,58.040 216.695,57.450 C217.302,57.871 217.807,58.419 218.212,59.093 C218.616,59.767 218.818,60.505 218.818,61.305 C218.818,62.275 218.535,63.117 217.969,63.833 C217.402,64.550 216.624,65.150 215.633,65.634 C214.641,66.118 213.469,66.477 212.114,66.709 C210.758,66.940 209.272,67.056 207.654,67.056 C205.267,67.056 203.063,66.709 201.041,66.014 C199.018,65.318 197.279,64.286 195.823,62.917 C194.366,61.548 193.223,59.831 192.395,57.766 C191.565,55.702 191.151,53.278 191.151,50.497 C191.151,47.801 191.565,45.463 192.395,43.482 C192.514,43.197 192.640,42.922 192.771,42.651 C191.915,42.492 190.917,42.407 189.755,42.407 C188.581,42.407 187.409,42.555 186.236,42.850 C185.062,43.145 184.031,43.545 183.142,44.050 L183.142,66.045 C182.737,66.172 182.171,66.287 181.443,66.393 C180.715,66.497 179.905,66.551 179.016,66.551 C177.195,66.551 175.880,66.245 175.072,65.634 C174.262,65.024 173.858,63.833 173.858,62.063 L173.858,42.786 C173.858,41.607 174.141,40.596 174.708,39.753 C175.274,38.910 176.063,38.173 177.074,37.541 C178.409,36.698 180.017,36.035 181.898,35.550 C183.779,35.066 185.751,34.823 187.814,34.823 C192.020,34.823 194.124,36.298 194.124,39.247 C194.124,39.731 194.060,40.174 193.968,40.600 C194.496,39.845 195.082,39.160 195.732,38.552 C197.127,37.246 198.725,36.287 200.525,35.676 C202.324,35.066 204.175,34.760 206.077,34.760 C208.140,34.760 210.030,35.086 211.750,35.739 C213.469,36.393 214.945,37.309 216.179,38.489 C217.413,39.669 218.373,41.080 219.061,42.723 C219.748,44.366 220.093,46.158 220.093,48.095 C220.093,49.444 219.748,50.456 219.061,51.129 C218.373,51.804 217.402,52.246 216.149,52.456 ZM209.960,43.355 C209.110,42.386 207.836,41.902 206.137,41.902 C204.398,41.902 202.952,42.461 201.799,43.576 C200.646,44.693 199.968,46.305 199.767,48.411 L211.355,46.452 C211.274,45.357 210.809,44.325 209.960,43.355 ZM167.063,32.231 C165.525,32.231 164.281,31.726 163.331,30.715 C162.380,29.703 161.905,28.461 161.905,26.986 C161.905,25.554 162.380,24.331 163.331,23.320 C164.281,22.309 165.525,21.803 167.063,21.803 C168.599,21.803 169.843,22.309 170.794,23.320 C171.744,24.331 172.220,25.554 172.220,26.986 C172.220,28.461 171.744,29.703 170.794,30.715 C169.843,31.726 168.599,32.231 167.063,32.231 ZM157.537,64.655 C156.282,65.456 154.746,66.067 152.925,66.488 C151.105,66.908 149.042,67.120 146.737,67.120 C142.570,67.120 139.253,66.287 136.786,64.623 C134.318,62.959 133.085,60.420 133.085,57.007 C133.085,54.100 133.913,51.888 135.572,50.371 C137.231,48.854 139.779,47.906 143.217,47.527 L151.287,46.642 L151.287,45.947 C151.287,44.599 150.761,43.608 149.710,42.976 C148.657,42.344 147.140,42.028 145.159,42.028 C143.621,42.028 142.115,42.218 140.639,42.597 C139.162,42.976 137.837,43.418 136.665,43.924 C136.179,43.587 135.764,43.071 135.421,42.376 C135.077,41.680 134.905,40.933 134.905,40.132 C134.905,38.278 135.835,36.951 137.696,36.150 C138.869,35.687 140.234,35.339 141.792,35.107 C143.348,34.876 144.876,34.760 146.373,34.760 C148.475,34.760 150.387,34.981 152.106,35.423 C153.825,35.866 155.292,36.551 156.505,37.477 C157.719,38.405 158.659,39.585 159.327,41.017 C159.994,42.450 160.328,44.135 160.328,46.073 L160.328,60.357 C160.328,61.453 160.055,62.327 159.509,62.980 C158.963,63.634 158.305,64.192 157.537,64.655 ZM151.348,53.152 L146.373,53.594 C145.077,53.721 144.037,54.027 143.248,54.511 C142.459,54.995 142.065,55.722 142.065,56.691 C142.065,57.702 142.429,58.503 143.157,59.093 C143.885,59.683 145.077,59.978 146.737,59.978 C147.626,59.978 148.506,59.883 149.376,59.693 C150.245,59.504 150.902,59.262 151.348,58.966 L151.348,53.152 ZM130.597,66.393 C129.869,66.497 129.059,66.551 128.170,66.551 C126.350,66.551 125.045,66.245 124.256,65.634 C123.468,65.024 123.073,63.833 123.073,62.063 L123.073,24.963 C123.477,24.837 124.054,24.710 124.803,24.584 C125.551,24.458 126.370,24.394 127.260,24.394 C129.039,24.394 130.333,24.710 131.143,25.342 C131.952,25.974 132.357,27.175 132.357,28.945 L132.357,66.045 C131.911,66.172 131.325,66.287 130.597,66.393 ZM119.311,35.771 L105.842,35.771 L105.842,44.050 L119.615,44.050 C119.858,44.515 120.090,45.062 120.313,45.694 C120.534,46.326 120.646,47.063 120.646,47.906 C120.646,49.296 120.343,50.318 119.736,50.971 C119.129,51.625 118.320,51.951 117.309,51.951 L105.963,51.951 L105.963,66.045 C105.517,66.172 104.891,66.287 104.082,66.393 C103.272,66.497 102.423,66.551 101.534,66.551 C99.632,66.551 98.308,66.213 97.559,65.540 C96.811,64.866 96.437,63.643 96.437,61.874 L96.437,33.053 C96.437,31.452 96.892,30.177 97.802,29.229 C98.712,28.281 99.935,27.807 101.473,27.807 L121.678,27.807 C121.920,28.229 122.142,28.777 122.345,29.451 C122.547,30.125 122.649,30.863 122.649,31.663 C122.649,33.053 122.355,34.086 121.769,34.760 C121.182,35.434 120.363,35.771 119.311,35.771 ZM54.978,52.323 C54.986,52.358 54.990,52.378 54.990,52.378 L54.986,52.378 L54.976,52.378 C54.907,53.141 54.582,53.885 53.997,54.470 C53.992,54.475 53.987,54.479 53.981,54.484 C53.964,54.502 53.948,54.522 53.930,54.540 C53.267,55.202 52.399,55.533 51.530,55.533 C51.530,55.533 51.530,55.533 51.530,55.533 C51.104,55.533 50.679,55.452 50.278,55.293 C49.253,55.125 47.735,54.929 46.222,54.929 C44.965,54.929 43.714,55.069 42.754,55.214 C42.741,55.220 42.729,55.226 42.715,55.232 C42.669,55.252 42.623,55.274 42.576,55.292 C42.502,55.322 42.426,55.347 42.350,55.371 C42.331,55.377 42.312,55.384 42.292,55.390 C41.979,55.483 41.656,55.532 41.332,55.531 C41.247,55.531 41.162,55.526 41.078,55.519 C41.049,55.526 41.033,55.530 41.033,55.530 L41.033,55.517 C40.267,55.450 39.520,55.125 38.934,54.539 C38.919,54.524 38.908,54.509 38.894,54.494 C38.884,54.485 38.873,54.477 38.863,54.467 C37.876,53.480 37.626,52.035 38.111,50.815 C38.279,49.790 38.474,48.274 38.474,46.764 C38.474,45.507 38.334,44.258 38.190,43.299 C38.185,43.288 38.181,43.278 38.177,43.268 C38.170,43.253 38.165,43.238 38.160,43.224 C38.157,43.218 38.156,43.213 38.153,43.208 C38.130,43.153 38.109,43.097 38.089,43.040 C38.074,42.999 38.059,42.958 38.046,42.917 C38.030,42.867 38.015,42.818 38.002,42.768 C37.987,42.714 37.974,42.661 37.962,42.607 C37.953,42.566 37.944,42.525 37.937,42.484 C37.924,42.412 37.914,42.340 37.906,42.267 C37.903,42.241 37.898,42.216 37.896,42.189 C37.895,42.180 37.893,42.170 37.892,42.160 C37.883,42.060 37.877,41.960 37.877,41.859 C37.877,41.858 37.877,41.857 37.877,41.856 C37.878,41.780 37.880,41.704 37.886,41.629 C37.878,41.594 37.874,41.574 37.874,41.574 L37.889,41.574 C37.899,41.463 37.916,41.353 37.936,41.243 C37.937,41.240 37.938,41.237 37.938,41.234 C37.939,41.233 37.939,41.233 37.939,41.232 C37.942,41.217 37.946,41.201 37.949,41.185 C37.966,41.104 37.986,41.022 38.009,40.941 C38.010,40.936 38.012,40.930 38.014,40.924 C38.015,40.921 38.016,40.918 38.017,40.915 C38.019,40.909 38.020,40.904 38.022,40.898 C38.026,40.885 38.030,40.872 38.034,40.859 C38.057,40.787 38.082,40.716 38.109,40.645 C38.113,40.636 38.116,40.627 38.120,40.619 C38.125,40.605 38.131,40.591 38.137,40.577 C38.140,40.570 38.143,40.562 38.146,40.555 C38.175,40.487 38.206,40.420 38.239,40.354 C38.243,40.346 38.248,40.337 38.252,40.329 C38.261,40.312 38.269,40.295 38.279,40.278 C38.281,40.273 38.283,40.269 38.285,40.265 C38.321,40.199 38.359,40.135 38.400,40.071 C38.405,40.063 38.410,40.055 38.415,40.047 C38.426,40.029 38.436,40.012 38.448,39.995 C38.449,39.993 38.450,39.991 38.452,39.989 C38.497,39.921 38.546,39.855 38.597,39.790 C38.603,39.783 38.609,39.775 38.615,39.768 C38.625,39.755 38.634,39.741 38.645,39.728 C38.645,39.728 38.646,39.727 38.646,39.727 C38.715,39.643 38.788,39.561 38.867,39.482 C38.867,39.482 38.868,39.481 38.868,39.481 C38.869,39.481 38.869,39.480 38.869,39.480 C38.870,39.479 38.870,39.479 38.871,39.479 C38.871,39.478 38.871,39.478 38.872,39.477 C38.877,39.472 38.883,39.467 38.889,39.462 C38.904,39.445 38.918,39.428 38.934,39.412 C38.995,39.351 39.061,39.298 39.125,39.243 C39.154,39.218 39.182,39.191 39.211,39.167 C39.257,39.130 39.305,39.097 39.353,39.063 C39.414,39.018 39.475,38.975 39.539,38.935 C39.573,38.914 39.608,38.894 39.643,38.874 C39.730,38.823 39.819,38.777 39.910,38.735 C39.926,38.727 39.942,38.719 39.958,38.712 C40.394,38.517 40.862,38.421 41.330,38.418 L41.330,38.417 C41.330,38.417 41.333,38.418 41.334,38.418 C41.762,38.417 42.191,38.494 42.595,38.655 C43.619,38.822 45.136,39.018 46.647,39.018 C47.902,39.018 49.152,38.878 50.111,38.734 C50.121,38.729 50.131,38.725 50.142,38.721 C50.589,38.520 51.070,38.418 51.551,38.421 C51.552,38.421 51.553,38.421 51.554,38.421 C51.630,38.422 51.706,38.424 51.782,38.430 C51.816,38.422 51.836,38.417 51.836,38.417 L51.836,38.432 C51.947,38.442 52.058,38.459 52.167,38.480 C52.170,38.481 52.173,38.482 52.176,38.482 C52.177,38.482 52.178,38.482 52.178,38.483 C52.194,38.486 52.209,38.490 52.225,38.493 C52.307,38.510 52.388,38.529 52.469,38.552 C52.475,38.554 52.480,38.556 52.486,38.558 C52.494,38.560 52.501,38.563 52.509,38.565 C52.523,38.569 52.537,38.574 52.551,38.578 C52.623,38.601 52.695,38.625 52.766,38.653 C52.775,38.657 52.784,38.661 52.794,38.665 C52.801,38.668 52.809,38.671 52.816,38.674 C52.829,38.679 52.842,38.684 52.855,38.690 C52.923,38.718 52.990,38.750 53.056,38.783 C53.071,38.790 53.085,38.798 53.100,38.806 C53.103,38.807 53.106,38.809 53.109,38.810 C53.121,38.816 53.133,38.822 53.145,38.829 C53.211,38.864 53.276,38.903 53.339,38.944 C53.367,38.961 53.394,38.977 53.421,38.995 C53.489,39.041 53.555,39.090 53.620,39.141 C53.641,39.158 53.663,39.173 53.683,39.190 C53.768,39.259 53.850,39.332 53.928,39.411 C53.929,39.411 53.929,39.412 53.929,39.412 C53.930,39.412 53.930,39.413 53.931,39.413 C53.937,39.419 53.942,39.425 53.947,39.432 C53.964,39.447 53.982,39.461 53.998,39.478 C54.244,39.723 54.442,39.997 54.596,40.289 C54.859,40.782 54.986,41.327 54.988,41.872 L54.990,41.872 C54.990,41.872 54.990,41.875 54.988,41.881 C54.989,42.308 54.913,42.734 54.753,43.136 C54.586,44.160 54.390,45.677 54.390,47.188 C54.390,48.444 54.530,49.694 54.674,50.653 C54.918,51.180 55.020,51.755 54.978,52.323 ZM164.150,35.708 C164.878,35.581 165.687,35.518 166.577,35.518 C168.398,35.518 169.702,35.834 170.491,36.466 C171.280,37.098 171.674,38.299 171.674,40.069 L171.674,66.045 C171.269,66.172 170.703,66.287 169.975,66.393 C169.247,66.497 168.437,66.551 167.548,66.551 C165.728,66.551 164.423,66.245 163.635,65.634 C162.846,65.024 162.451,63.833 162.451,62.063 L162.451,36.087 C162.855,35.960 163.422,35.834 164.150,35.708 Z"/>
</svg>