<svg viewBox="0 0 277 94" fill="none"
  xmlns="http://www.w3.org/2000/svg">
  <path d="M90.0066 26.9344L90.0706 26.9984L89.9356 27.1334C89.9356 27.1334 78.1096 38.9714 77.0276 40.0544C75.9456 41.1374 74.6406 43.1324 74.4726 47.1874C74.3046 51.2424 77.8346 54.3214 77.8346 54.3214L90.0706 66.5694L90.0116 66.6274C91.3566 68.0474 92.1866 69.9594 92.1866 72.0694C92.1866 76.4434 88.6406 79.9894 84.2666 79.9894C82.1596 79.9894 80.2496 79.1614 78.8306 77.8194L78.7756 77.8744L66.1356 65.2234C55.9626 55.0394 55.9626 38.5284 66.1356 28.3444L78.7756 15.6934L78.8246 15.7424C80.2436 14.3964 82.1566 13.5664 84.2666 13.5664C88.6406 13.5664 92.1866 17.1124 92.1866 21.4864C92.1866 23.5994 91.3546 25.5144 90.0066 26.9344Z" fill="#FAAC01"/>
  <path d="M79.4467 84.6202C79.4467 88.9942 75.9007 92.5402 71.5257 92.5402C69.3677 92.5402 67.4137 91.6742 65.9847 90.2742L65.9307 90.3282L65.7957 90.1942C65.7957 90.1942 53.9577 78.3682 52.8747 77.2862C51.7917 76.2032 49.7967 74.8992 45.7417 74.7312C41.6867 74.5632 38.6087 78.0922 38.6087 78.0922L26.3607 90.3282L26.2777 90.2462C24.8247 91.9962 22.6347 93.1112 20.1827 93.1112C15.8087 93.1112 12.2617 89.5642 12.2617 85.1902C12.2617 82.7412 13.3747 80.5532 15.1207 79.1002L15.0547 79.0342L27.7067 66.3942C37.8897 56.2202 54.4007 56.2202 64.5847 66.3942L77.2357 79.0342L77.1857 79.0842C78.5827 80.5122 79.4467 82.4642 79.4467 84.6202Z" fill="#FB4B6F"/>
  <path d="M26.9157 65.414L14.2757 78.054L14.1767 77.955C12.8387 78.989 11.1657 79.61 9.34368 79.61C4.96868 79.61 1.42268 76.064 1.42268 71.69C1.42268 69.868 2.04468 68.195 3.07868 66.856L2.98068 66.759L15.2167 54.522C15.2167 54.522 18.7467 51.447 18.5787 47.396C18.4107 43.345 17.1057 41.351 16.0237 40.269C14.9417 39.187 3.11568 27.361 3.11568 27.361L2.98068 27.226L3.06268 27.144C1.47468 25.696 0.47168 23.616 0.47168 21.297C0.47168 16.923 4.01868 13.377 8.39268 13.377C10.7117 13.377 12.7907 14.379 14.2397 15.968L14.2757 15.931L26.9157 28.571C37.0897 38.745 37.0897 55.24 26.9157 65.414Z" fill="#0CC29A"/>
  <path d="M77.1493 15.0652L77.2073 15.1232L64.5673 27.7622C54.3933 37.9362 37.8983 37.9362 27.7243 27.7622L15.0853 15.1232L15.1803 15.0272C13.2943 13.5792 12.0723 11.3082 12.0723 8.74717C12.0723 4.37217 15.6183 0.826172 19.9933 0.826172C22.5553 0.826172 24.8263 2.04817 26.2733 3.93417L26.3803 3.82817L38.6163 16.0642C38.6163 16.0642 41.6913 19.5942 45.7423 19.4262C49.7933 19.2582 51.7873 17.9532 52.8693 16.8712C53.9513 15.7892 65.7773 3.96217 65.7773 3.96217L65.9123 3.82817L65.9693 3.88517C67.3813 2.58017 69.2623 1.77717 71.3363 1.77717C75.7103 1.77717 79.2573 5.32317 79.2573 9.69717C79.2573 11.7712 78.4533 13.6532 77.1493 15.0652Z" fill="#B372BD"/>
  <path d="M275.61 62.2847C275.205 62.9797 274.558 63.6227 273.669 64.2117C272.536 64.9287 271.08 65.5817 269.3 66.1717C267.52 66.7607 265.478 67.0557 263.172 67.0557C258.075 67.0557 254.06 65.7187 251.128 63.0427C248.195 60.3677 246.729 56.3537 246.729 51.0027C246.729 48.2217 247.123 45.8197 247.912 43.7977C248.701 41.7747 249.783 40.0897 251.158 38.7407C252.533 37.3927 254.151 36.3927 256.012 35.7387C257.872 35.0857 259.875 34.7597 262.019 34.7597C262.949 34.7597 263.829 34.8337 264.658 34.9807C265.487 35.1287 266.245 35.3277 266.934 35.5807V24.9627C267.378 24.8367 267.965 24.7097 268.693 24.5837C269.421 24.4577 270.23 24.3937 271.12 24.3937C272.941 24.3937 274.245 24.7097 275.034 25.3417C275.823 25.9737 276.217 27.1747 276.217 28.9447V59.7247C276.217 60.7357 276.014 61.5887 275.61 62.2847ZM266.994 43.2917C266.468 43.0387 265.892 42.8177 265.265 42.6277C264.638 42.4387 263.981 42.3437 263.293 42.3437C261.109 42.3437 259.369 43.0387 258.075 44.4297C256.78 45.8197 256.134 48.0317 256.134 51.0657C256.134 53.9727 256.75 56.0907 257.984 57.4177C259.218 58.7447 260.927 59.4087 263.111 59.4087C263.961 59.4087 264.719 59.3137 265.387 59.1237C266.054 58.9347 266.59 58.7137 266.994 58.4607V43.2917ZM243.453 64.6547C242.198 65.4557 240.661 66.0667 238.841 66.4877C237.021 66.9077 234.958 67.1197 232.652 67.1197C228.486 67.1197 225.168 66.2867 222.702 64.6227C220.234 62.9587 219.001 60.4197 219.001 57.0067C219.001 54.0997 219.829 51.8877 221.488 50.3707C223.146 48.8537 225.695 47.9057 229.133 47.5267L237.203 46.6417V45.9467C237.203 44.5987 236.677 43.6077 235.625 42.9757C234.573 42.3437 233.056 42.0277 231.075 42.0277C229.537 42.0277 228.031 42.2177 226.555 42.5967C225.077 42.9757 223.753 43.4177 222.58 43.9237C222.095 43.5867 221.68 43.0707 221.336 42.3757C220.992 41.6797 220.821 40.9327 220.821 40.1317C220.821 38.2777 221.751 36.9507 223.612 36.1497C224.785 35.6867 226.15 35.3387 227.707 35.1067C229.264 34.8757 230.791 34.7597 232.288 34.7597C234.391 34.7597 236.302 34.9807 238.022 35.4227C239.741 35.8657 241.208 36.5507 242.421 37.4767C243.635 38.4047 244.575 39.5847 245.242 41.0167C245.91 42.4497 246.244 44.1347 246.244 46.0727V60.3567C246.244 61.4527 245.971 62.3267 245.424 62.9797C244.878 63.6337 244.22 64.1917 243.453 64.6547ZM237.264 53.1517L232.288 53.5937C230.993 53.7207 229.952 54.0267 229.164 54.5107C228.375 54.9947 227.98 55.7217 227.98 56.6907C227.98 57.7017 228.344 58.5027 229.073 59.0927C229.801 59.6827 230.993 59.9777 232.652 59.9777C233.542 59.9777 234.421 59.8827 235.292 59.6927C236.161 59.5037 236.818 59.2617 237.264 58.9657V53.1517ZM216.149 52.4557L200.373 54.9207C200.939 56.6907 201.93 57.9447 203.346 58.6817C204.762 59.4197 206.4 59.7877 208.261 59.7877C209.96 59.7877 211.557 59.5457 213.054 59.0607C214.55 58.5767 215.764 58.0397 216.695 57.4497C217.302 57.8707 217.807 58.4187 218.212 59.0927C218.616 59.7667 218.818 60.5047 218.818 61.3047C218.818 62.2747 218.535 63.1167 217.969 63.8327C217.402 64.5497 216.624 65.1497 215.633 65.6337C214.641 66.1177 213.469 66.4767 212.114 66.7087C210.758 66.9397 209.272 67.0557 207.654 67.0557C205.267 67.0557 203.063 66.7087 201.041 66.0137C199.018 65.3177 197.279 64.2857 195.823 62.9167C194.366 61.5477 193.223 59.8307 192.395 57.7657C191.565 55.7017 191.151 53.2777 191.151 50.4967C191.151 47.8007 191.565 45.4627 192.395 43.4817C192.514 43.1967 192.64 42.9217 192.771 42.6507C191.915 42.4917 190.917 42.4067 189.755 42.4067C188.581 42.4067 187.409 42.5547 186.236 42.8497C185.062 43.1447 184.031 43.5447 183.142 44.0497V66.0447C182.737 66.1717 182.171 66.2867 181.443 66.3927C180.715 66.4967 179.905 66.5507 179.016 66.5507C177.195 66.5507 175.88 66.2447 175.072 65.6337C174.262 65.0237 173.858 63.8327 173.858 62.0627V42.7857C173.858 41.6067 174.141 40.5957 174.708 39.7527C175.274 38.9097 176.063 38.1727 177.074 37.5407C178.409 36.6977 180.017 36.0347 181.898 35.5497C183.779 35.0657 185.751 34.8227 187.814 34.8227C192.02 34.8227 194.124 36.2977 194.124 39.2467C194.124 39.7307 194.06 40.1737 193.968 40.5997C194.496 39.8447 195.082 39.1597 195.732 38.5517C197.127 37.2457 198.725 36.2867 200.525 35.6757C202.324 35.0657 204.175 34.7597 206.077 34.7597C208.14 34.7597 210.03 35.0857 211.75 35.7387C213.469 36.3927 214.945 37.3087 216.179 38.4887C217.413 39.6687 218.373 41.0797 219.061 42.7227C219.748 44.3657 220.093 46.1577 220.093 48.0947C220.093 49.4437 219.748 50.4557 219.061 51.1287C218.373 51.8037 217.402 52.2457 216.149 52.4557ZM209.96 43.3547C209.11 42.3857 207.836 41.9017 206.137 41.9017C204.398 41.9017 202.952 42.4607 201.799 43.5757C200.646 44.6927 199.968 46.3047 199.767 48.4107L211.355 46.4517C211.274 45.3567 210.809 44.3247 209.96 43.3547ZM167.063 32.2307C165.525 32.2307 164.281 31.7257 163.331 30.7147C162.38 29.7027 161.905 28.4607 161.905 26.9857C161.905 25.5537 162.38 24.3307 163.331 23.3197C164.281 22.3087 165.525 21.8027 167.063 21.8027C168.599 21.8027 169.843 22.3087 170.794 23.3197C171.744 24.3307 172.22 25.5537 172.22 26.9857C172.22 28.4607 171.744 29.7027 170.794 30.7147C169.843 31.7257 168.599 32.2307 167.063 32.2307ZM157.537 64.6547C156.282 65.4557 154.746 66.0667 152.925 66.4877C151.105 66.9077 149.042 67.1197 146.737 67.1197C142.57 67.1197 139.253 66.2867 136.786 64.6227C134.318 62.9587 133.085 60.4197 133.085 57.0067C133.085 54.0997 133.913 51.8877 135.572 50.3707C137.231 48.8537 139.779 47.9057 143.217 47.5267L151.287 46.6417V45.9467C151.287 44.5987 150.761 43.6077 149.71 42.9757C148.657 42.3437 147.14 42.0277 145.159 42.0277C143.621 42.0277 142.115 42.2177 140.639 42.5967C139.162 42.9757 137.837 43.4177 136.665 43.9237C136.179 43.5867 135.764 43.0707 135.421 42.3757C135.077 41.6797 134.905 40.9327 134.905 40.1317C134.905 38.2777 135.835 36.9507 137.696 36.1497C138.869 35.6867 140.234 35.3387 141.792 35.1067C143.348 34.8757 144.876 34.7597 146.373 34.7597C148.475 34.7597 150.387 34.9807 152.106 35.4227C153.825 35.8657 155.292 36.5507 156.505 37.4767C157.719 38.4047 158.659 39.5847 159.327 41.0167C159.994 42.4497 160.328 44.1347 160.328 46.0727V60.3567C160.328 61.4527 160.055 62.3267 159.509 62.9797C158.963 63.6337 158.305 64.1917 157.537 64.6547ZM151.348 53.1517L146.373 53.5937C145.077 53.7207 144.037 54.0267 143.248 54.5107C142.459 54.9947 142.065 55.7217 142.065 56.6907C142.065 57.7017 142.429 58.5027 143.157 59.0927C143.885 59.6827 145.077 59.9777 146.737 59.9777C147.626 59.9777 148.506 59.8827 149.376 59.6927C150.245 59.5037 150.902 59.2617 151.348 58.9657V53.1517ZM130.597 66.3927C129.869 66.4967 129.059 66.5507 128.17 66.5507C126.35 66.5507 125.045 66.2447 124.256 65.6337C123.468 65.0237 123.073 63.8327 123.073 62.0627V24.9627C123.477 24.8367 124.054 24.7097 124.803 24.5837C125.551 24.4577 126.37 24.3937 127.26 24.3937C129.039 24.3937 130.333 24.7097 131.143 25.3417C131.952 25.9737 132.357 27.1747 132.357 28.9447V66.0447C131.911 66.1717 131.325 66.2867 130.597 66.3927ZM119.311 35.7707H105.842V44.0497H119.615C119.858 44.5147 120.09 45.0617 120.313 45.6937C120.534 46.3257 120.646 47.0627 120.646 47.9057C120.646 49.2957 120.343 50.3177 119.736 50.9707C119.129 51.6247 118.32 51.9507 117.309 51.9507H105.963V66.0447C105.517 66.1717 104.891 66.2867 104.082 66.3927C103.272 66.4967 102.423 66.5507 101.534 66.5507C99.632 66.5507 98.308 66.2127 97.559 65.5397C96.811 64.8657 96.437 63.6427 96.437 61.8737V33.0527C96.437 31.4517 96.8921 30.1767 97.8021 29.2287C98.7121 28.2807 99.935 27.8067 101.473 27.8067H121.678C121.92 28.2287 122.142 28.7767 122.345 29.4507C122.547 30.1247 122.649 30.8627 122.649 31.6627C122.649 33.0527 122.355 34.0857 121.769 34.7597C121.182 35.4337 120.363 35.7707 119.311 35.7707ZM54.978 52.3227C54.986 52.3577 54.99 52.3777 54.99 52.3777H54.986H54.976C54.907 53.1407 54.582 53.8847 53.997 54.4697C53.992 54.4747 53.987 54.4787 53.981 54.4837C53.964 54.5017 53.948 54.5217 53.93 54.5397C53.267 55.2017 52.399 55.5327 51.53 55.5327C51.104 55.5327 50.679 55.4517 50.278 55.2927C49.253 55.1247 47.735 54.9287 46.222 54.9287C44.965 54.9287 43.714 55.0687 42.754 55.2137C42.741 55.2197 42.729 55.2257 42.715 55.2317C42.669 55.2517 42.623 55.2737 42.576 55.2917C42.502 55.3217 42.426 55.3467 42.35 55.3707C42.331 55.3767 42.312 55.3837 42.292 55.3897C41.979 55.4827 41.656 55.5317 41.332 55.5307C41.247 55.5307 41.162 55.5257 41.078 55.5187C41.049 55.5257 41.033 55.5297 41.033 55.5297V55.5167C40.267 55.4497 39.52 55.1247 38.934 54.5387C38.919 54.5237 38.908 54.5087 38.894 54.4937C38.884 54.4847 38.873 54.4767 38.863 54.4667C37.876 53.4797 37.626 52.0347 38.111 50.8147C38.279 49.7897 38.474 48.2737 38.474 46.7637C38.474 45.5067 38.334 44.2577 38.19 43.2987C38.185 43.2877 38.181 43.2777 38.177 43.2677C38.17 43.2527 38.165 43.2377 38.16 43.2237C38.157 43.2177 38.156 43.2127 38.153 43.2077C38.13 43.1527 38.109 43.0967 38.089 43.0397C38.074 42.9987 38.059 42.9577 38.046 42.9167C38.03 42.8667 38.015 42.8177 38.002 42.7677C37.987 42.7137 37.974 42.6607 37.962 42.6067C37.953 42.5657 37.944 42.5247 37.937 42.4837C37.924 42.4117 37.914 42.3397 37.906 42.2667C37.903 42.2407 37.898 42.2157 37.896 42.1887C37.895 42.1797 37.893 42.1697 37.892 42.1597C37.883 42.0597 37.877 41.9597 37.877 41.8587C37.877 41.8577 37.877 41.8567 37.877 41.8557C37.878 41.7797 37.88 41.7037 37.886 41.6287C37.878 41.5937 37.874 41.5737 37.874 41.5737H37.889C37.899 41.4627 37.916 41.3527 37.936 41.2427C37.937 41.2397 37.938 41.2367 37.938 41.2337C37.939 41.2327 37.939 41.2327 37.939 41.2317C37.942 41.2167 37.946 41.2007 37.949 41.1847C37.966 41.1037 37.986 41.0217 38.009 40.9407C38.01 40.9357 38.012 40.9297 38.014 40.9237C38.015 40.9207 38.016 40.9177 38.017 40.9147C38.019 40.9087 38.02 40.9037 38.022 40.8977C38.026 40.8847 38.03 40.8717 38.034 40.8587C38.057 40.7867 38.082 40.7157 38.109 40.6447C38.113 40.6357 38.116 40.6267 38.12 40.6187C38.125 40.6047 38.131 40.5907 38.137 40.5767C38.14 40.5697 38.143 40.5617 38.146 40.5547C38.175 40.4867 38.206 40.4197 38.239 40.3537C38.243 40.3457 38.248 40.3367 38.252 40.3287C38.261 40.3117 38.269 40.2947 38.279 40.2777C38.281 40.2727 38.283 40.2687 38.285 40.2647C38.321 40.1987 38.359 40.1347 38.4 40.0707C38.405 40.0627 38.41 40.0547 38.415 40.0467C38.426 40.0287 38.436 40.0117 38.448 39.9947C38.449 39.9927 38.45 39.9907 38.452 39.9887C38.497 39.9207 38.546 39.8547 38.597 39.7897C38.603 39.7827 38.609 39.7747 38.615 39.7677C38.625 39.7547 38.634 39.7407 38.645 39.7277L38.646 39.7267C38.715 39.6427 38.788 39.5607 38.867 39.4817L38.868 39.4807C38.869 39.4807 38.869 39.4797 38.869 39.4797C38.87 39.4787 38.87 39.4787 38.871 39.4787C38.871 39.4777 38.871 39.4777 38.872 39.4767C38.877 39.4717 38.883 39.4667 38.889 39.4617C38.904 39.4447 38.918 39.4277 38.934 39.4117C38.995 39.3507 39.061 39.2977 39.125 39.2427C39.154 39.2177 39.182 39.1907 39.211 39.1667C39.257 39.1297 39.305 39.0967 39.353 39.0627C39.414 39.0177 39.475 38.9747 39.539 38.9347C39.573 38.9137 39.608 38.8937 39.643 38.8737C39.73 38.8227 39.819 38.7767 39.91 38.7347C39.926 38.7267 39.942 38.7187 39.958 38.7117C40.394 38.5167 40.862 38.4207 41.33 38.4177V38.4167C41.33 38.4167 41.333 38.4177 41.334 38.4177C41.762 38.4167 42.191 38.4937 42.595 38.6547C43.619 38.8217 45.136 39.0177 46.647 39.0177C47.902 39.0177 49.152 38.8777 50.111 38.7337C50.121 38.7287 50.131 38.7247 50.142 38.7207C50.589 38.5197 51.07 38.4177 51.551 38.4207C51.552 38.4207 51.553 38.4207 51.554 38.4207C51.63 38.4217 51.706 38.4237 51.782 38.4297C51.816 38.4217 51.836 38.4167 51.836 38.4167V38.4317C51.947 38.4417 52.058 38.4587 52.167 38.4797C52.17 38.4807 52.173 38.4817 52.176 38.4817C52.177 38.4817 52.178 38.4817 52.178 38.4827C52.194 38.4857 52.209 38.4897 52.225 38.4927C52.307 38.5097 52.388 38.5287 52.469 38.5517C52.475 38.5537 52.48 38.5557 52.486 38.5577C52.494 38.5597 52.501 38.5627 52.509 38.5647C52.523 38.5687 52.537 38.5737 52.551 38.5777C52.623 38.6007 52.695 38.6247 52.766 38.6527C52.775 38.6567 52.784 38.6607 52.794 38.6647C52.801 38.6677 52.809 38.6707 52.816 38.6737C52.829 38.6787 52.842 38.6837 52.855 38.6897C52.923 38.7177 52.99 38.7497 53.056 38.7827C53.071 38.7897 53.085 38.7977 53.1 38.8057C53.103 38.8067 53.106 38.8087 53.109 38.8097C53.121 38.8157 53.133 38.8217 53.145 38.8287C53.211 38.8637 53.276 38.9027 53.339 38.9437C53.367 38.9607 53.394 38.9767 53.421 38.9947C53.489 39.0407 53.555 39.0897 53.62 39.1407C53.641 39.1577 53.663 39.1727 53.683 39.1897C53.768 39.2587 53.85 39.3317 53.928 39.4107C53.929 39.4107 53.929 39.4117 53.929 39.4117C53.93 39.4117 53.93 39.4127 53.931 39.4127C53.937 39.4187 53.942 39.4247 53.947 39.4317C53.964 39.4467 53.982 39.4607 53.998 39.4777C54.244 39.7227 54.442 39.9967 54.596 40.2887C54.859 40.7817 54.986 41.3267 54.988 41.8717H54.99C54.99 41.8717 54.99 41.8747 54.988 41.8807C54.989 42.3077 54.913 42.7337 54.753 43.1357C54.586 44.1597 54.39 45.6767 54.39 47.1877C54.39 48.4437 54.53 49.6937 54.674 50.6527C54.918 51.1797 55.02 51.7547 54.978 52.3227ZM164.15 35.7077C164.878 35.5807 165.687 35.5177 166.577 35.5177C168.398 35.5177 169.702 35.8337 170.491 36.4657C171.28 37.0977 171.674 38.2987 171.674 40.0687V66.0447C171.269 66.1717 170.703 66.2867 169.975 66.3927C169.247 66.4967 168.437 66.5507 167.548 66.5507C165.728 66.5507 164.423 66.2447 163.635 65.6337C162.846 65.0237 162.451 63.8327 162.451 62.0627V36.0867C162.855 35.9597 163.422 35.8337 164.15 35.7077Z" fill="var(--layer-2-text-3)"/>
</svg>
