<svg xmlns="http://www.w3.org/2000/svg"
  xmlns:xlink="http://www.w3.org/1999/xlink" width="93px" height="94px">
  <path fillRule="evenodd" fill="rgb(250, 172, 1)" d="M90.007,26.935 L90.071,26.999 L89.936,27.134 C89.936,27.134 78.110,38.972 77.028,40.055 C75.946,41.138 74.641,43.133 74.473,47.188 C74.305,51.243 77.835,54.322 77.835,54.322 L90.071,66.570 L90.012,66.628 C91.357,68.048 92.187,69.960 92.187,72.070 C92.187,76.444 88.641,79.990 84.267,79.990 C82.160,79.990 80.250,79.162 78.831,77.820 L78.776,77.875 L66.136,65.224 C55.963,55.040 55.963,38.529 66.136,28.345 L78.776,15.694 L78.825,15.743 C80.244,14.397 82.157,13.567 84.267,13.567 C88.641,13.567 92.187,17.113 92.187,21.487 C92.187,23.600 91.355,25.515 90.007,26.935 Z"/>
  <path fillRule="evenodd" fill="rgb(251, 75, 111)" d="M79.447,84.621 C79.447,88.995 75.901,92.541 71.526,92.541 C69.368,92.541 67.414,91.675 65.985,90.275 L65.931,90.329 L65.796,90.195 C65.796,90.195 53.958,78.369 52.875,77.287 C51.792,76.204 49.797,74.900 45.742,74.732 C41.687,74.564 38.609,78.093 38.609,78.093 L26.361,90.329 L26.278,90.247 C24.825,91.997 22.635,93.112 20.183,93.112 C15.809,93.112 12.262,89.565 12.262,85.191 C12.262,82.742 13.375,80.554 15.121,79.101 L15.055,79.035 L27.707,66.395 C37.890,56.221 54.401,56.221 64.585,66.395 L77.236,79.035 L77.186,79.085 C78.583,80.513 79.447,82.465 79.447,84.621 Z"/>
  <path fillRule="evenodd" fill="rgb(12, 194, 154)" d="M26.916,65.414 L14.276,78.054 L14.177,77.955 C12.839,78.989 11.166,79.610 9.344,79.610 C4.969,79.610 1.423,76.064 1.423,71.690 C1.423,69.868 2.045,68.195 3.079,66.856 L2.981,66.759 L15.217,54.522 C15.217,54.522 18.747,51.447 18.579,47.396 C18.411,43.345 17.106,41.351 16.024,40.269 C14.942,39.187 3.116,27.361 3.116,27.361 L2.981,27.226 L3.063,27.144 C1.475,25.696 0.472,23.616 0.472,21.297 C0.472,16.923 4.019,13.377 8.393,13.377 C10.712,13.377 12.791,14.379 14.240,15.968 L14.276,15.931 L26.916,28.571 C37.090,38.745 37.090,55.240 26.916,65.414 Z"/>
  <path fillRule="evenodd" fill="rgb(179, 114, 189)" d="M77.149,15.065 L77.207,15.123 L64.567,27.762 C54.393,37.936 37.898,37.936 27.724,27.762 L15.085,15.123 L15.180,15.027 C13.294,13.579 12.072,11.308 12.072,8.747 C12.072,4.372 15.618,0.826 19.993,0.826 C22.555,0.826 24.826,2.048 26.273,3.934 L26.380,3.828 L38.616,16.064 C38.616,16.064 41.691,19.594 45.742,19.426 C49.793,19.258 51.787,17.953 52.869,16.871 C53.951,15.789 65.777,3.962 65.777,3.962 L65.912,3.828 L65.969,3.885 C67.381,2.580 69.262,1.777 71.336,1.777 C75.710,1.777 79.257,5.323 79.257,9.697 C79.257,11.771 78.453,13.653 77.149,15.065 Z"/>
  <path fillRule="evenodd" fill="rgb(255, 255, 255)" d="M54.753,43.136 C54.586,44.160 54.390,45.677 54.390,47.188 C54.390,48.444 54.530,49.694 54.674,50.653 C54.918,51.180 55.020,51.755 54.978,52.323 C54.986,52.358 54.990,52.378 54.990,52.378 L54.986,52.378 L54.976,52.378 C54.907,53.141 54.582,53.885 53.997,54.470 C53.992,54.475 53.987,54.479 53.981,54.484 C53.964,54.502 53.948,54.522 53.930,54.540 C53.267,55.202 52.399,55.533 51.530,55.533 C51.530,55.533 51.530,55.533 51.530,55.533 C51.104,55.533 50.679,55.452 50.278,55.293 C49.253,55.125 47.735,54.929 46.222,54.929 C44.965,54.929 43.714,55.069 42.754,55.214 C42.741,55.220 42.729,55.226 42.715,55.232 C42.669,55.252 42.623,55.274 42.576,55.292 C42.502,55.322 42.426,55.347 42.350,55.371 C42.331,55.377 42.312,55.384 42.292,55.390 C41.979,55.483 41.656,55.532 41.332,55.531 C41.247,55.531 41.162,55.526 41.078,55.519 C41.049,55.526 41.033,55.530 41.033,55.530 L41.033,55.517 C40.267,55.450 39.520,55.125 38.934,54.539 C38.919,54.524 38.908,54.509 38.894,54.494 C38.884,54.485 38.873,54.477 38.863,54.467 C37.876,53.480 37.626,52.035 38.111,50.815 C38.279,49.790 38.474,48.274 38.474,46.764 C38.474,45.507 38.334,44.258 38.190,43.299 C38.185,43.288 38.181,43.278 38.177,43.268 C38.170,43.253 38.165,43.238 38.160,43.224 C38.157,43.218 38.156,43.213 38.153,43.208 C38.130,43.153 38.109,43.097 38.089,43.040 C38.074,42.999 38.059,42.958 38.046,42.917 C38.030,42.867 38.015,42.818 38.002,42.768 C37.987,42.714 37.974,42.661 37.962,42.607 C37.953,42.566 37.944,42.525 37.937,42.484 C37.924,42.412 37.914,42.340 37.906,42.267 C37.903,42.241 37.898,42.216 37.896,42.189 C37.895,42.180 37.893,42.170 37.892,42.160 C37.883,42.060 37.877,41.960 37.877,41.859 C37.877,41.858 37.877,41.857 37.877,41.856 C37.878,41.780 37.880,41.704 37.886,41.629 C37.878,41.594 37.874,41.574 37.874,41.574 L37.889,41.574 C37.899,41.463 37.916,41.353 37.936,41.243 C37.937,41.240 37.938,41.237 37.938,41.234 C37.939,41.233 37.939,41.233 37.939,41.232 C37.942,41.217 37.946,41.201 37.949,41.185 C37.966,41.104 37.986,41.022 38.009,40.941 C38.010,40.936 38.012,40.930 38.014,40.924 C38.015,40.921 38.016,40.918 38.017,40.915 C38.019,40.909 38.020,40.904 38.022,40.898 C38.026,40.885 38.030,40.872 38.034,40.859 C38.057,40.787 38.082,40.716 38.109,40.645 C38.113,40.636 38.116,40.627 38.120,40.619 C38.125,40.605 38.131,40.591 38.137,40.577 C38.140,40.570 38.143,40.562 38.146,40.555 C38.175,40.487 38.206,40.420 38.239,40.354 C38.243,40.346 38.248,40.337 38.252,40.329 C38.261,40.312 38.269,40.295 38.279,40.278 C38.281,40.273 38.283,40.269 38.285,40.265 C38.321,40.199 38.359,40.135 38.400,40.071 C38.405,40.063 38.410,40.055 38.415,40.047 C38.426,40.029 38.436,40.012 38.448,39.995 C38.449,39.993 38.450,39.991 38.452,39.989 C38.497,39.921 38.546,39.855 38.597,39.790 C38.603,39.783 38.609,39.775 38.615,39.768 C38.625,39.755 38.634,39.741 38.645,39.728 C38.645,39.728 38.646,39.727 38.646,39.727 C38.715,39.643 38.788,39.561 38.867,39.482 C38.867,39.482 38.868,39.481 38.868,39.481 C38.869,39.481 38.869,39.480 38.869,39.480 C38.870,39.479 38.870,39.479 38.871,39.479 C38.871,39.478 38.871,39.478 38.872,39.477 C38.877,39.472 38.883,39.467 38.889,39.462 C38.904,39.445 38.918,39.428 38.934,39.412 C38.995,39.351 39.061,39.298 39.125,39.243 C39.154,39.218 39.182,39.191 39.211,39.167 C39.257,39.130 39.305,39.097 39.353,39.063 C39.414,39.018 39.475,38.975 39.539,38.935 C39.573,38.914 39.608,38.894 39.643,38.874 C39.730,38.823 39.819,38.777 39.910,38.735 C39.926,38.727 39.942,38.719 39.958,38.712 C40.394,38.517 40.862,38.421 41.330,38.418 L41.330,38.417 C41.330,38.417 41.333,38.418 41.334,38.418 C41.762,38.417 42.191,38.494 42.595,38.655 C43.619,38.822 45.136,39.018 46.647,39.018 C47.902,39.018 49.152,38.878 50.111,38.734 C50.121,38.729 50.131,38.725 50.142,38.721 C50.589,38.520 51.070,38.418 51.551,38.421 C51.552,38.421 51.553,38.421 51.554,38.421 C51.630,38.422 51.706,38.424 51.782,38.430 C51.816,38.422 51.836,38.417 51.836,38.417 L51.836,38.432 C51.947,38.442 52.058,38.459 52.167,38.480 C52.170,38.481 52.173,38.482 52.176,38.482 C52.177,38.482 52.178,38.482 52.178,38.483 C52.194,38.486 52.209,38.490 52.225,38.493 C52.307,38.510 52.388,38.529 52.469,38.552 C52.475,38.554 52.480,38.556 52.486,38.558 C52.494,38.560 52.501,38.563 52.509,38.565 C52.523,38.569 52.537,38.574 52.551,38.578 C52.623,38.601 52.695,38.625 52.766,38.653 C52.775,38.657 52.784,38.661 52.794,38.665 C52.801,38.668 52.809,38.671 52.816,38.674 C52.829,38.679 52.842,38.684 52.855,38.690 C52.923,38.718 52.990,38.750 53.056,38.783 C53.071,38.790 53.085,38.798 53.100,38.806 C53.103,38.807 53.106,38.809 53.109,38.810 C53.121,38.816 53.133,38.822 53.145,38.829 C53.211,38.864 53.276,38.903 53.339,38.944 C53.367,38.961 53.394,38.977 53.421,38.995 C53.489,39.041 53.555,39.090 53.620,39.141 C53.641,39.158 53.663,39.173 53.683,39.190 C53.768,39.259 53.850,39.332 53.928,39.411 C53.929,39.411 53.929,39.412 53.929,39.412 C53.930,39.412 53.930,39.413 53.931,39.413 C53.937,39.419 53.942,39.425 53.947,39.432 C53.964,39.447 53.982,39.461 53.998,39.478 C54.244,39.723 54.442,39.997 54.596,40.289 C54.859,40.782 54.986,41.327 54.988,41.872 L54.990,41.872 C54.990,41.872 54.990,41.875 54.988,41.881 C54.989,42.308 54.913,42.734 54.753,43.136 Z"/>
</svg>