<svg xmlns="http://www.w3.org/2000/svg"
  xmlns:xlink="http://www.w3.org/1999/xlink" width="181px" height="47px">
  <path fillRule="evenodd" fill="rgb(255, 255, 255)" d="M179.610,41.285 C179.205,41.980 178.558,42.623 177.669,43.212 C176.536,43.929 175.080,44.582 173.300,45.172 C171.520,45.761 169.478,46.056 167.172,46.056 C162.075,46.056 158.060,44.719 155.128,42.043 C152.195,39.368 150.729,35.354 150.729,30.003 C150.729,27.222 151.123,24.820 151.912,22.798 C152.701,20.775 153.783,19.090 155.158,17.741 C156.533,16.393 158.151,15.393 160.012,14.739 C161.872,14.086 163.875,13.760 166.019,13.760 C166.949,13.760 167.829,13.834 168.658,13.981 C169.487,14.129 170.245,14.328 170.934,14.581 L170.934,3.963 C171.378,3.837 171.965,3.710 172.693,3.584 C173.421,3.458 174.230,3.394 175.120,3.394 C176.941,3.394 178.245,3.710 179.034,4.342 C179.823,4.974 180.217,6.175 180.217,7.945 L180.217,38.725 C180.217,39.736 180.014,40.589 179.610,41.285 ZM170.994,22.292 C170.468,22.039 169.892,21.818 169.265,21.628 C168.638,21.439 167.981,21.344 167.293,21.344 C165.109,21.344 163.369,22.039 162.075,23.430 C160.780,24.820 160.134,27.032 160.134,30.066 C160.134,32.973 160.750,35.091 161.984,36.418 C163.218,37.745 164.927,38.409 167.111,38.409 C167.961,38.409 168.719,38.314 169.387,38.124 C170.054,37.935 170.590,37.714 170.994,37.461 L170.994,22.292 ZM147.453,43.655 C146.198,44.456 144.661,45.067 142.841,45.488 C141.021,45.908 138.958,46.120 136.652,46.120 C132.486,46.120 129.168,45.287 126.702,43.623 C124.234,41.959 123.001,39.420 123.001,36.007 C123.001,33.100 123.829,30.888 125.488,29.371 C127.146,27.854 129.695,26.906 133.133,26.527 L141.203,25.642 L141.203,24.947 C141.203,23.599 140.677,22.608 139.625,21.976 C138.573,21.344 137.056,21.028 135.075,21.028 C133.537,21.028 132.031,21.218 130.555,21.597 C129.077,21.976 127.753,22.418 126.580,22.924 C126.095,22.587 125.680,22.071 125.336,21.376 C124.992,20.680 124.821,19.933 124.821,19.132 C124.821,17.278 125.751,15.951 127.612,15.150 C128.785,14.687 130.150,14.339 131.707,14.107 C133.264,13.876 134.791,13.760 136.288,13.760 C138.391,13.760 140.302,13.981 142.022,14.423 C143.741,14.866 145.208,15.551 146.421,16.477 C147.635,17.405 148.575,18.585 149.242,20.017 C149.910,21.450 150.244,23.135 150.244,25.073 L150.244,39.357 C150.244,40.453 149.971,41.327 149.424,41.980 C148.878,42.634 148.220,43.192 147.453,43.655 ZM141.264,32.152 L136.288,32.594 C134.993,32.721 133.952,33.027 133.164,33.511 C132.375,33.995 131.980,34.722 131.980,35.691 C131.980,36.702 132.344,37.503 133.073,38.093 C133.801,38.683 134.993,38.978 136.652,38.978 C137.542,38.978 138.421,38.883 139.292,38.693 C140.161,38.504 140.818,38.262 141.264,37.966 L141.264,32.152 ZM120.149,31.456 L104.373,33.921 C104.939,35.691 105.930,36.945 107.346,37.682 C108.762,38.420 110.400,38.788 112.261,38.788 C113.960,38.788 115.557,38.546 117.054,38.061 C118.550,37.577 119.764,37.040 120.695,36.450 C121.302,36.871 121.807,37.419 122.212,38.093 C122.616,38.767 122.818,39.505 122.818,40.305 C122.818,41.275 122.535,42.117 121.969,42.833 C121.402,43.550 120.624,44.150 119.633,44.634 C118.641,45.118 117.469,45.477 116.114,45.709 C114.758,45.940 113.272,46.056 111.654,46.056 C109.267,46.056 107.063,45.709 105.041,45.014 C103.018,44.318 101.279,43.286 99.823,41.917 C98.366,40.548 97.223,38.831 96.395,36.766 C95.565,34.702 95.151,32.278 95.151,29.497 C95.151,26.801 95.565,24.463 96.395,22.482 C96.515,22.194 96.654,21.928 96.787,21.655 C95.928,21.493 94.924,21.407 93.755,21.407 C92.581,21.407 91.409,21.555 90.236,21.850 C89.062,22.145 88.031,22.545 87.142,23.050 L87.142,45.045 C86.737,45.172 86.171,45.287 85.443,45.393 C84.715,45.497 83.905,45.551 83.016,45.551 C81.195,45.551 79.880,45.245 79.072,44.634 C78.262,44.024 77.858,42.833 77.858,41.063 L77.858,21.786 C77.858,20.607 78.141,19.596 78.708,18.753 C79.274,17.910 80.063,17.173 81.074,16.541 C82.409,15.698 84.017,15.035 85.898,14.550 C87.779,14.066 89.751,13.823 91.814,13.823 C96.020,13.823 98.124,15.298 98.124,18.247 C98.124,18.736 98.059,19.184 97.965,19.613 C98.494,18.855 99.079,18.163 99.732,17.552 C101.127,16.246 102.725,15.287 104.525,14.676 C106.324,14.066 108.175,13.760 110.077,13.760 C112.140,13.760 114.030,14.086 115.750,14.739 C117.469,15.393 118.945,16.309 120.179,17.489 C121.413,18.669 122.373,20.080 123.061,21.723 C123.748,23.366 124.093,25.158 124.093,27.095 C124.093,28.444 123.748,29.456 123.061,30.129 C122.373,30.804 121.402,31.246 120.149,31.456 ZM113.960,22.355 C113.110,21.386 111.836,20.902 110.137,20.902 C108.398,20.902 106.952,21.461 105.799,22.576 C104.646,23.693 103.968,25.305 103.767,27.411 L115.355,25.452 C115.274,24.357 114.809,23.325 113.960,22.355 ZM71.063,11.231 C69.525,11.231 68.281,10.726 67.331,9.715 C66.380,8.703 65.905,7.461 65.905,5.986 C65.905,4.554 66.380,3.331 67.331,2.320 C68.281,1.309 69.525,0.803 71.063,0.803 C72.599,0.803 73.843,1.309 74.794,2.320 C75.744,3.331 76.220,4.554 76.220,5.986 C76.220,7.461 75.744,8.703 74.794,9.715 C73.843,10.726 72.599,11.231 71.063,11.231 ZM61.537,43.655 C60.282,44.456 58.746,45.067 56.925,45.488 C55.105,45.908 53.042,46.120 50.737,46.120 C46.570,46.120 43.253,45.287 40.786,43.623 C38.318,41.959 37.085,39.420 37.085,36.007 C37.085,33.100 37.913,30.888 39.572,29.371 C41.231,27.854 43.779,26.906 47.217,26.527 L55.287,25.642 L55.287,24.947 C55.287,23.599 54.761,22.608 53.710,21.976 C52.657,21.344 51.140,21.028 49.159,21.028 C47.621,21.028 46.115,21.218 44.639,21.597 C43.162,21.976 41.837,22.418 40.665,22.924 C40.179,22.587 39.764,22.071 39.421,21.376 C39.077,20.680 38.905,19.933 38.905,19.132 C38.905,17.278 39.835,15.951 41.696,15.150 C42.869,14.687 44.234,14.339 45.792,14.107 C47.348,13.876 48.876,13.760 50.373,13.760 C52.475,13.760 54.387,13.981 56.106,14.423 C57.825,14.866 59.292,15.551 60.505,16.477 C61.719,17.405 62.659,18.585 63.327,20.017 C63.994,21.450 64.328,23.135 64.328,25.073 L64.328,39.357 C64.328,40.453 64.055,41.327 63.509,41.980 C62.963,42.634 62.305,43.192 61.537,43.655 ZM55.348,32.152 L50.373,32.594 C49.077,32.721 48.037,33.027 47.248,33.511 C46.459,33.995 46.065,34.722 46.065,35.691 C46.065,36.702 46.429,37.503 47.157,38.093 C47.885,38.683 49.077,38.978 50.737,38.978 C51.626,38.978 52.506,38.883 53.376,38.693 C54.245,38.504 54.902,38.262 55.348,37.966 L55.348,32.152 ZM32.170,45.551 C30.350,45.551 29.045,45.245 28.256,44.634 C27.468,44.024 27.073,42.833 27.073,41.063 L27.073,3.963 C27.477,3.837 28.054,3.710 28.803,3.584 C29.551,3.458 30.370,3.394 31.260,3.394 C33.039,3.394 34.333,3.710 35.143,4.342 C35.952,4.974 36.357,6.175 36.357,7.945 L36.357,45.045 C35.911,45.172 35.325,45.287 34.597,45.393 C33.869,45.497 33.059,45.551 32.170,45.551 ZM23.311,14.771 L9.842,14.771 L9.842,23.050 L23.615,23.050 C23.858,23.515 24.090,24.062 24.313,24.694 C24.534,25.326 24.646,26.063 24.646,26.906 C24.646,28.296 24.343,29.318 23.736,29.971 C23.129,30.625 22.320,30.951 21.309,30.951 L9.963,30.951 L9.963,45.045 C9.517,45.172 8.891,45.287 8.082,45.393 C7.272,45.497 6.423,45.551 5.534,45.551 C3.632,45.551 2.308,45.213 1.559,44.540 C0.811,43.866 0.437,42.643 0.437,40.874 L0.437,12.053 C0.437,10.452 0.892,9.177 1.802,8.229 C2.712,7.281 3.935,6.807 5.473,6.807 L25.678,6.807 C25.920,7.229 26.142,7.777 26.345,8.451 C26.547,9.125 26.649,9.863 26.649,10.663 C26.649,12.053 26.355,13.086 25.769,13.760 C25.182,14.434 24.363,14.771 23.311,14.771 ZM68.150,14.708 C68.878,14.581 69.687,14.518 70.577,14.518 C72.398,14.518 73.702,14.834 74.491,15.466 C75.280,16.098 75.674,17.299 75.674,19.069 L75.674,45.045 C75.269,45.172 74.703,45.287 73.975,45.393 C73.247,45.497 72.437,45.551 71.548,45.551 C69.728,45.551 68.423,45.245 67.635,44.634 C66.846,44.024 66.451,42.833 66.451,41.063 L66.451,15.087 C66.855,14.960 67.422,14.834 68.150,14.708 Z"/>
</svg>